#!OML:ASF F:\VICON\USERDATA\INSTALL\rory3\rory3.ASF
:FULLY-SPECIFIED
:DEGREES
74
root 1.256661997366154 17.82389698055079 47.043890224058195 -3.5749366028737057 -0.73646081982765 1.8111916768635097
lfemur 8.04183189248144 -4.718633280078247 -25.820749625913212
ltibia 27.136906671830182
lfoot -2.6688762812966473 -5.941008298460389
ltoes -3.572965935234925
rfemur -27.239367067051475 1.1158792455297561 19.26224006015401
rtibia 36.00417741309156
rfoot -8.86993540621835 -2.516609194321528
rtoes 1.9524368216790542
lowerback 1.0 -1.6499656744124616 -3.302172204981551
upperback 0.09478413767082819 -2.4826641763755637 1.4580691542541715
thorax -4.985328003369541 -1.1960936855611117 3.5781762107892074
lowerneck -16.075631555219406 -2.5378146700717776 -1.8304755203725704
upperneck 24.471902565846843 -2.9194674739044464 -0.019787007107870944
head 10.629081462824594 -1.5662288655405536 -0.028373998578878012
lclavicle -1.9622301368012155e-15 -2.3836065854806637e-16
lhumerus -26.199320868342134 -1.1367715390901223 81.69114514702375
lradius 24.71224178935105
lwrist 4.659157963870035
lhand -27.172919363336916 23.764936509300956
lfingers nan
lthumb -0.12003017384988202 54.196356601111056
rclavicle -1.9257004789810055e-15 -2.1084388831549293e-16
rhumerus -33.67260686617169 -25.776520112278764 -77.23276149843728
rradius 30.594688169713805
rwrist 2.6353179513901837
rhand -18.22891696126333 1.0
rfingers nan
rthumb 8.52248213543938 -7.811263531823165
75
root 1.268018698766097 17.812451664911368 47.49055180669259 -3.546820286492405 -0.931517455018478 1.7470077337710683
lfemur 8.425755852573175 -4.599469983317304 -25.385918815399076
ltibia 29.524137155581798
lfoot -2.856750403409823 -4.910646426550844
ltoes -3.6111628122270143
rfemur -26.37834731036672 1.2673717733198941 19.6436117126329
rtibia 32.19408360706158
rfoot -9.29317377959755 -4.013776097904092
rtoes 1.7754271248658575
lowerback 1.0 -1.779484598793807 -3.3006995818499143
upperback 0.08651122467642522 -2.6428632524138056 1.5348684846885645
thorax -4.919093329820097 -1.2714975940026152 3.717224338096009
lowerneck -16.06076725641609 -2.5039437948164287 -1.8722389238743808
upperneck 24.667241916750868 -2.8380228537009033 -0.16543459812330824
head 10.67396981823765 -1.5457297267726575 -0.06837837284966876
lclavicle -1.9643675937415204e-15 -2.398770979873327e-16
lhumerus -26.67156949450759 -0.8345605766253588 81.83283204844551
lradius 23.646527879296045
lwrist 5.071713441475812
lhand -27.147425009062665 23.804225365978308
lfingers nan
lthumb -0.19156754139825882 54.023999407773665
rclavicle -1.926923459628934e-15 -2.1165804477990626e-16
rhumerus -33.90973606526731 -26.228850373669793 -76.38453895677584
rradius 30.913813648024245
rwrist 3.0123563806300098
rhand -18.197297141486786 1.0
rfingers nan
rthumb 8.56706691228057 -7.744679597590439
76
root 1.2882604720803434 17.812617975490472 48.09390126436703 -3.4694856905968847 -1.088353220346557 1.8216204988547209
lfemur 8.196514319287957 -4.400200480142096 -24.994666393618832
ltibia 32.500249337599435
lfoot -2.9984950560492027 -4.51049843875921
ltoes -3.278177552627829
rfemur -24.988633850792763 1.3350467073592318 20.08699813632654
rtibia 29.45757309395867
rfoot -9.533420720716496 -5.701001525340754
rtoes 1.8490922229592148
lowerback 1.0 -1.8795026262705465 -3.3287205885445244
upperback 0.10927697859322333 -2.771231025136286 1.5482284139579665
thorax -4.775183237156287 -1.3329207220143457 3.77268986912669
lowerneck -16.067326161211117 -2.500278663575894 -1.9211578888676846
upperneck 24.66439961457056 -2.8170916523036436 -0.2563154872834658
head 10.666409176972081 -1.5437628524799443 -0.10026696706176552
lclavicle -1.9659602951817812e-15 -2.407753982245767e-16
lhumerus -27.27281665007888 -0.5195543876479349 81.98488499462094
lradius 22.644354180410176
lwrist 5.57788468846285
lhand -27.274695879934463 23.597364592797796
lfingers nan
lthumb -0.22248031176665284 53.97861386783913
rclavicle -1.931052299369637e-15 -2.147598708998056e-16
rhumerus -33.98650626722028 -26.601428511487025 -75.51397866534477
rradius 31.177911320822822
rwrist 3.430397651026463
rhand -18.228766963687768 1.0
rfingers nan
rthumb 8.50185256595736 -7.875595914894869
77
root 1.3157492458689206 17.815194257140533 48.40294130934726 -3.4361422604100973 -1.2439476735404418 1.5547474821761456
lfemur 7.300304791361462 -4.151512240300091 -24.306649117608238
ltibia 36.105825998970325
lfoot -3.5236355390510283 -3.1821065001028104
ltoes -3.5216787301794654
rfemur -24.32204610664452 1.4055526340537527 20.63823292976342
rtibia 28.484114528697177
rfoot -9.833735652783881 -6.9031746331589385
rtoes 2.193778568465094
lowerback 1.0 -1.9273442672771872 -3.07468951107501
upperback 0.11610084155715095 -2.7653202801301733 1.6423840523726718
thorax -4.699743546577818 -1.3459894795071403 3.703628764880288
lowerneck -16.067768639652456 -2.5094398722729006 -1.9504099405093045
upperneck 24.527181489790753 -2.825099850561371 -0.3209452715857826
head 10.606833231210803 -1.5520753738353845 -0.1297918491848229
lclavicle -1.9669682839374994e-15 -2.4153005163981186e-16
lhumerus -27.978395962144972 -0.21320183800984305 82.12567809386113
lradius 21.79409235717309
lwrist 6.048992040696901
lhand -27.287829408741747 23.6425838746549
lfingers nan
lthumb -0.3511905374324831 53.823016992942065
rclavicle -1.9339420066648216e-15 -2.170972084002144e-16
rhumerus -33.975812172133885 -26.995867634999627 -74.73485723118442
rradius 31.372544527406973
rwrist 3.779020622294915
rhand -18.19197091558269 1.0
rfingers nan
rthumb 8.534468487515918 -7.825901951045655
78
root 1.3391081352637384 17.81759786380374 48.40638048421677 -3.3617672609462144 -1.3575544956030197 0.5207900308367535
lfemur 5.864961510667557 -3.8198647684283515 -22.846688762576974
ltibia 40.18208034135631
lfoot -4.51993519127984 -2.3858530480225575
ltoes -3.8755351790966808
rfemur -23.727745103988006 1.8581204423649145 22.077373627256726
rtibia 28.93265927493737
rfoot -10.543466709331632 -7.513874223036867
rtoes 2.5106124759809756
lowerback 1.0 -1.9474926034598075 -2.345975109025387
upperback 0.05500211450994413 -2.710005175421694 1.8381896135158329
thorax -4.770421408651939 -1.338941452235508 3.5778211976192758
lowerneck -16.087272200827623 -2.5317813253417514 -1.9489708678584208
upperneck 24.31906244206572 -2.8628365943856884 -0.3759219931971186
head 10.522639614992407 -1.570207535772339 -0.16390855597906517
lclavicle -1.9669632539771516e-15 -2.419252710856334e-16
lhumerus -28.732274044946823 0.11232372394985468 82.24615707909653
lradius 21.14096167677695
lwrist 6.394887898635245
lhand -27.463482945597608 23.438834016483753
lfingers nan
lthumb -0.45494707194211376 53.76030163880254
rclavicle -1.9343580539568148e-15 -2.1776476097502842e-16
rhumerus -33.7644982625486 -27.30661120014844 -74.02272169595484
rradius 31.483711228332638
rwrist 4.002718643292521
rhand -18.23290701099686 1.0
rfingers nan
rthumb 8.445941757825256 -7.9864361151585275
